/* XPM */
static char *_11275a8abc846f5f303e178faac630bwV3a5aTP9aKltfTA[] = {
/* columns rows colors chars-per-pixel */
"50 50 201 2 ",
"   c #000301",
".  c #0F0F0D",
"X  c #0F120F",
"o  c #131512",
"O  c #151C14",
"+  c #13161A",
"@  c #151A1D",
"#  c #1A1D1E",
"$  c #220607",
"%  c #251514",
"&  c #381C1C",
"*  c #17241C",
"=  c #21201D",
"-  c #161B21",
";  c #1A1D22",
":  c #1D2125",
">  c #1D2926",
",  c #0C3823",
"<  c #163223",
"1  c #1D3223",
"2  c #202325",
"3  c #2C2E24",
"4  c #23262B",
"5  c #252A2D",
"6  c #2A2B2E",
"7  c #322C2F",
"8  c #273428",
"9  c #262A32",
"0  c #2B2D34",
"q  c #2C2F38",
"w  c #302F35",
"e  c #3F2E31",
"r  c #2E3136",
"t  c #2E3C35",
"y  c #2E3239",
"u  c #313236",
"i  c #383635",
"p  c #32343A",
"a  c #38373B",
"s  c #36393D",
"d  c #3A3B3D",
"f  c #7C181B",
"g  c #413D3E",
"h  c #742E30",
"j  c #06471B",
"k  c #094424",
"l  c #014D26",
"z  c #0E4B29",
"x  c #134C2D",
"c  c #015226",
"v  c #005329",
"b  c #0B5428",
"n  c #005A2C",
"m  c #1B4530",
"M  c #025F31",
"N  c #2A4335",
"B  c #3D443B",
"V  c #3A483D",
"C  c #24593D",
"Z  c #006533",
"A  c #006935",
"S  c #076C38",
"D  c #00733B",
"F  c #00793F",
"G  c #42453E",
"H  c #47483D",
"J  c #343740",
"K  c #363B41",
"L  c #3B3D41",
"P  c #403F43",
"I  c #3D4143",
"U  c #3E4844",
"Y  c #3E564C",
"T  c #007D41",
"R  c #2B6242",
"E  c #386949",
"W  c #424245",
"Q  c #414947",
"!  c #4C4A45",
"~  c #444649",
"^  c #464A4A",
"/  c #4B4C4C",
"(  c #514C4C",
")  c #44554E",
"_  c #5A554E",
"`  c #4E4F50",
"'  c #4B5652",
"]  c #4C5853",
"[  c #4A5A57",
"{  c #535555",
"}  c #555556",
"|  c #565659",
" . c #5B565A",
".. c #55595A",
"X. c #5B5C5D",
"o. c #62544C",
"O. c #66594D",
"+. c #6D5B54",
"@. c #5C615E",
"#. c #6E6D5A",
"$. c #746B5B",
"%. c #5E5E61",
"&. c #615E63",
"*. c #5D6262",
"=. c #636265",
"-. c #686567",
";. c #6D6C60",
":. c #65656A",
">. c #69676B",
",. c #67696C",
"<. c #6A6A6D",
"1. c #736C61",
"2. c #716B6C",
"3. c #777664",
"4. c #6D6D71",
"5. c #716F73",
"6. c #6B7473",
"7. c #747375",
"8. c #787576",
"9. c #707A77",
"0. c #757579",
"q. c #78767A",
"w. c #747D7C",
"e. c #79797C",
"r. c #8A161C",
"t. c #B7262F",
"y. c #B83236",
"u. c #CC1119",
"i. c #C02C33",
"p. c #C8353A",
"a. c #AB4B47",
"s. c #B14548",
"d. c #B95F64",
"f. c #84776A",
"g. c #B56A6F",
"h. c #C14A4C",
"j. c #C75553",
"k. c #C2766E",
"l. c #008445",
"z. c #008847",
"x. c #008C4A",
"c. c #00944E",
"v. c #73817D",
"b. c #898671",
"n. c #918976",
"m. c #7C8383",
"M. c #7D8A87",
"N. c #818285",
"B. c #86868A",
"V. c #848C8B",
"C. c #948F88",
"Z. c #8A9292",
"A. c #919497",
"S. c #98979C",
"D. c #94999B",
"F. c #98999D",
"G. c #A19885",
"H. c #ABA48D",
"J. c #ACAB93",
"K. c #B3A792",
"L. c #B1AC96",
"P. c #B4B59C",
"I. c #B8B29B",
"U. c #B6B89D",
"Y. c #9C9EA1",
"T. c #BDBCA3",
"R. c #C8AF99",
"E. c #C1B7A0",
"W. c #C4BCA4",
"Q. c #CABDA7",
"!. c #DFBDAD",
"~. c #ECB4AC",
"^. c #BEC1A4",
"/. c #C3C1A7",
"(. c #C6C4AA",
"). c #CBC4AB",
"_. c #CBCAAD",
"`. c #D0C6AE",
"'. c #CECBB2",
"]. c #D3CCB3",
"[. c #DCCBB4",
"{. c #D6D1B5",
"}. c #D8D2B9",
"|. c #DBD3B9",
" X c #DCD8BC",
".X c #E3C9B2",
"XX c #E2D7BD",
"oX c #DFDCC2",
"OX c #E3DCC1",
"+X c #E9DEC4",
"@X c #E6E3C6",
"#X c #ECE1C6",
"$X c #ECE4C9",
"%X c #EDE9CE",
"&X c #F3E6CC",
"*X c #ECEAD0",
"=X c #F4EED3",
"-X c #F6F1D5",
";X c #F6F5DB",
":X c #FBF4D8",
">X c #FEFCE3",
/* pixels */
"L L 0 p s L - q 0 J 0 0 p w p 0 :.5.<.d K u r y s W p L I K s : p p 9 p 0 q 9 y I p I K K - y p 0 L ",
"K + r 0 0 y q y q y p 9 0 >.0 p 0 w d a ; w 0 0 0 p r p K ; ; 9 9 6 4.7.p p r r y y r + : 0 0 0 9 0 ",
"@ r p a u ,.9 r K 4 y r e.=.L 9 p 9 0 p q 0 L :.,.0 0 p 9 r a 0 r ,.0.d d 5 9 y y 0 r p ,.:.y y p p ",
"r p 0 %.7.w.:.r 5 p 9 0.:.L L w y q J 9 p u &.:.q.>.u u r <.0.0 p 9 d L L p u r 0 u >.=.5.<.L 9 9 y ",
"y 9 -.e.5.<.7.d a r r s I d 0 u q J 0 y 0 w &.q.=.0.7.p 6 r :.L 0 y q w 0 q 0 q r <.=.0.>.L L p p y ",
"y r 0.s d -.a I 0 0 0 p K 0 u 0 9 y p q w 0 >.q.P K 0.d r y 0 p p q q w p 0 J q 0 ,.q.e.L a - 0 9 w ",
"y 0 <.d *.I s d p q q q 0 p u :.4.&.u p g W.L.E.H.E.I.E.K.+.0 0 w p :.>.0 q 0 p -.7.d X.P @ 4 w a %.",
"q p s d L s I - q 0 p q y 0 ,.0.7.-.>.6 $.+X].XX/.OX|.OX_.G.( 0 q &.q.q.&.w 0 r <.d d I p ; q q =.q.",
"a J 0 K I K ; y 0 y y r 9 <.7.-.-.d  .o.W.=X@X|.W.*X'.=XoX X}._ 2.2.-.8.-.B r r <.d =.d # # w :.q.-.",
"L 4 p 9 @ : 9 r r y y 0 0 :.8.>.I *.(.].].&X XW 8 [.# =X|.#X:X).X.8.-.d :.p 9 y +.4.d L p : 0 >.7.d ",
"K y p q r r r r r 9 9 K q q p p a W T.).'.$X|.(.P.OXT.#X'.#X-XQ.d >.>.d L L y y q I s K I @ 0 w I s ",
"y y 0 0 r 0 0.=.y y q q q 0 p p u + T.).P.i T.j.a..Xy.*XJ.1.&X).X.d d L ; ; q 9 y q I p - - p p 0 0 ",
"q y y p y 0.<.L y y q 0 y p y 9 6 7 W.`.P.% ^.j.a.!.y.$XJ.;.%X(.o.u - ; 9 J 0 p 9 r + ; : y r 9 y y ",
"q y p 4 ,.p d r 9 r 0 r p 0 p p 9 W.]. X_.].T.'.G.p.W.W.T.].XXOX].o.0 u p 9 p 0 u p y 0 y 9 y y 0 J ",
"q u 6 u y p 9 p y r y ,.&.0 0 p r Q.3.n.T.i o . 3 [.G o X _ &X$.K.+.0 p 0 p 0 w p 4 0 p 9 p y 9 p 0 ",
":.9 p w 0 y 0 0 r ,.=.7.0.0.0.9 6 I.#.n.L.      O /.*     G  XO.G.o.u 0 >.q.:.:.:.,.a 0 y y y y 0 :.",
":.0.y y 0 w q y w >.7.>.&.-.<.d # Q.$.b.L.      O XXX     ! #XO.K.o.&.q.7.-.<.q.5.8.<.9 y y 0 y i &.",
"7.L y y 0 p q q =.0.>.<.7.L %.d # I.b.n.J.8 % 3 H `.B $ % 3. Xf.H.$.q.2.&.:.2.<.-.e.*.I - r y 0 X.q.",
"=.d - 0 p 9 p q :.d i 8.<.s I d ; ).*X-X|.>Xi.~. X=X:Xu.h.=X#X:X#Xf.e.d -.5.2.a d -.d s - y J q 5.q.",
"d s + p w 0 y y <.0.d >.s d p L # u U._.R.t.R.! B _.i [.K.k.@X(.! } 7.i g 8.X.<.d a s 2 + y y y p d ",
"d @ y r 0 u r p 0 K L p s L I @ p r ^. X XR.{.I.n.#XJ.$X[..X-X`.i 0.,.4.d 8.<.p s W s @ p 9 9 y u s ",
": r 0 t =.:.0 9 0 a s s L s - y 9 > n.J._.{.(.]._.{._.{./.].OXn.H u s d i L L I L s s : y y y r 0 r ",
"0 p 9 9 e.7.,.p p 9 @ 2 - - 4 0 4 c c ) ^.:X-X:X X;X-X-X%X*X].j v < 0 s I L p K s K : ; r r y r y p ",
"q q y u -.8.d a 0 r p 9 ; : 4 0 v l.A Z l..X).[.U.{._._.^.n.S Z T A l ; + ; ; ; ; @ ; 9 r y 9 y 0 0 ",
"<.=.w 0 p K :.L @ p y 0 w w k v x.S Z A Z S c ) ] ] i b b Z Z A A F c.n 6 w 0 0 y 0 q w 0 w u 9 0 y ",
"d 0.L 0 0 L s d : 9 9 p 0 a x v z.A Z Z Z Z v ) ) ] B c v Z Z Z Z D z.c 0 u r y y y y p p =.>.w y y ",
"u L ; 0 p 0 K 2 0 y q 0 p I M n l.A Z Z Z Z v ' ' } B c v Z Z Z Z D l.Z G / r 0 y 9 0 w &.,.8.-.q 9 ",
"0 0 0 p 9 p 0 0 y y 0 p 0 z l.x.Z A Z Z Z A v ' ] } s c n A A A A A A c.l V ,.r q r p :.>.q.-.8.>.p ",
"J p w 6 p p 0 0 r 9 p 0 0 k T x.Z Z Z A Z l ) ..' ....i N n Z Z Z Z A c.l N a ; y 0 0 ,.7.7.=.8.:.0 ",
"9 q 4.>.e.5.>.>.p r y r r j z.x.Z n Z Z Z l Y | ' ....i N n Z Z M Z Z c.l 8 L - q y r :.7.>.-.<.7.P ",
"p &.7.q.=.e.0.=.s 9 0 y p k F z.Z v Z Z Z l C ' ) ' ) m m n Z Z n n Z x.l 1 I @ p 0 r r 0.d d 7.L s ",
"w >.8.-.g &.>.d L y q y 0 k l.x.Z v Z Z Z l c ' ] } d v v n A A n M A c.l 8 @ y 0 r p r :.:.d :.s L ",
"0 e.p P L &.<.s K : 9 0 p k l.z.Z c Z Z Z A v ] ' { d v v A A A v n A x.l * r r r u 9 p r L u L J - ",
"p &.4.p =.I a L : 9 p p p z l.x.A c Z A Z A v ] ] | d v c A A A n M A c.l 1 9 p :.<.0 p 9 r Q L ; 0 ",
"0 p L K W K L p @ y r 9 :.z F l.n c Z Z Z Z c Y ) ' B c c A Z Z v n A x.l > 0 :.=.q.0.4.r p + - p 0 ",
"q q w q p L ; ; - y r ,.5.z T T Z l Z Z Z A c ] ' | d c c A A A M n Z z.l 1 4.:.q.=.8.L 9 0 q p 0 p ",
"p 0 p p - - ; ; p 9 :.7.>.z v v v v Z A Z Z v ' ]  .d v v A A A v c c v v 1 4.0.d i <.d I 9 p 0 p 6 ",
"w 0 w 0 q ; : 9 y 0 ,.>.a &.0 i  .a l l v c c c c c c l c c c l l R +.u 0 0 &.q.d ,.s K a r 0 p a &.",
":.<.w p q y 9 p y 0 6 d s t 0 t ' r , , C E R R R R R E R C R z m N ..t 9 0 0 L a B K I ; p 9 p &.<.",
"7.:.:.0 0 q y 0 0 y r w w 6 r 6 s + + t 9.D.V.A.M.A.Z.A.V.V.N.2 p r 6 5 q 9 p 0 - s K - r y q :.-.8.",
"8.7.<.L 0 J y w u r p 6 w - + ; ; - 9 r w.F.Z.F.V.Y.D.D.V.V.N.: p - 5 6 6 r y 0 9 > : - 0 0 q :.q.-.",
"=.P K s 4 9 q w =.<.0 p 4 0.r + ; r 6 6 w.F.Z.u * O X Y.Z.B.N.+ - p 9 a <.=.9 u y 0 + : : y 0 4.0.=.",
"d =.L p + p u :.0.7.=.d 0.a.& : 0 0 5 { w.F.Z.e.*.@ <.D.V.V.N.# 9 p >.%.:.8.-.:.r - a 0 + @ p 0 *.Q ",
"B u L 2 q 0 :.7.=.-./ @.s.h @ + u r U X.v.Z.V.Z.v.: m.Z.V.V.m.* 6 :.4.m.7.8.W 5.,.@ 9 <.,.: # 0 I s ",
"s I K @ 0 0 >.7.u t / C.u.e @ y p 9 u *.9.B.M.Z.6.4 m.B.m.B.0.# | 0.L i -.=.i w.a : u =.0.K + : : y ",
"s : 9 s 0 p :.u D.Z.g.u.5 : - r 0 p 2 9 * ; O @ > 6 2 # * - : 4 =.:.d 0.>.L s s K @ 0 w I s I @ - : ",
"+ r r 5 p w = S.D.p.r.6 ; + 0 y 0 4 ` X...X.X.%./ | ..X...X...X.0 a d d L s I K : 0 J 9 p : @ y 0 y ",
"y r y y u ~ { d.k.h & @ @ y y 0 9 5 I ^ Q / Q ^ I _ Q ~ Q ^ ^ ^ r 4 0 s s I @ - 0 p :.,.0 0 y y r J ",
"9.y 0 0 ~ ] [ f r.# ; 0 q 0 0 0 0 W 3 4 5 5 6 W V >.r 6 B L 6 : 5 5 w ; ; - y p =.>.8.X.P r 0 y 9 s ",
"s r p :.a =.u 0 9 9 0 p p y y 0 { :.` 0 > y 2 %.I =./ i Q p p @ 9 9 9 p y 9 a &.8.5.:.Q d p y p y %."
};
