/* XPM */
static char *e42be3f60c2c4c98b8d2557cee99c63eOEXpaq3DlgzqXn3Y[] = {
/* columns rows colors chars-per-pixel */
"50 50 174 2 ",
"   c #010201",
".  c #0B0101",
"X  c #040905",
"o  c #0C0900",
"O  c #01020B",
"+  c #0A0009",
"@  c #000A0C",
"#  c #0A0A0C",
"$  c #130001",
"%  c #0E1800",
"&  c #0D1A0C",
"*  c #151604",
"=  c #161E07",
"-  c #191A03",
";  c #16120D",
":  c #040012",
">  c #080415",
",  c #0C0D14",
"<  c #1B091F",
"1  c #091314",
"2  c #0D1814",
"3  c #0C1B1C",
"4  c #161513",
"5  c #1C1614",
"6  c #141817",
"7  c #191A15",
"8  c #13151A",
"9  c #1C151D",
"0  c #151A1D",
"q  c #181C1E",
"w  c #210D16",
"e  c #0A2011",
"r  c #0D201A",
"t  c #202016",
"y  c #0B1121",
"u  c #161B22",
"i  c #191D22",
"p  c #1D2125",
"a  c #1E222A",
"s  c #202126",
"d  c #22252B",
"f  c #262A2E",
"g  c #292A2F",
"h  c #262A32",
"j  c #2B2D34",
"k  c #2D2F38",
"l  c #302F35",
"z  c #2E3136",
"x  c #2E3239",
"c  c #313136",
"v  c #32343A",
"b  c #38373A",
"n  c #36393D",
"m  c #3A3B3E",
"M  c #5A050A",
"N  c #650009",
"B  c #433E39",
"V  c #343740",
"C  c #363B41",
"Z  c #3B3D41",
"A  c #413D45",
"S  c #3D4144",
"D  c #434344",
"F  c #44454A",
"G  c #4A4A4A",
"H  c #56575B",
"J  c #5D5C5F",
"K  c #686F5F",
"L  c #5E5E62",
"P  c #625E63",
"I  c #5D6164",
"U  c #646365",
"Y  c #696567",
"T  c #696966",
"R  c #65656A",
"E  c #69666B",
"W  c #66696C",
"Q  c #6B6B6C",
"!  c #766E63",
"~  c #716B6C",
"^  c #657163",
"/  c #6E706E",
"(  c #72726E",
")  c #6D6D71",
"_  c #686A77",
"`  c #716F73",
"'  c #786D72",
"]  c #667172",
"[  c #737274",
"{  c #787576",
"}  c #757579",
"|  c #79777A",
" . c #77787B",
".. c #7A797C",
"X. c #830200",
"o. c #990000",
"O. c #9B020E",
"+. c #990513",
"@. c #A1000A",
"#. c #F36E1F",
"$. c #FF6C24",
"%. c #FF6528",
"&. c #FC6D2E",
"*. c #F67626",
"=. c #FD7327",
"-. c #F7712A",
";. c #FF712C",
":. c #FA6A33",
">. c #FF6B34",
",. c #FF6A3E",
"<. c #FF7436",
"1. c #FF6A43",
"2. c #FB4E6C",
"3. c #FF4E72",
"4. c #078E07",
"5. c #088F0F",
"6. c #019305",
"7. c #038D14",
"8. c #0B8A19",
"9. c #019214",
"0. c #1ABA1A",
"q. c #0EBA25",
"w. c #12BB22",
"e. c #06C523",
"r. c #0CC021",
"t. c #FFC629",
"y. c #FCC631",
"u. c #FDCA32",
"i. c #FB3889",
"p. c #FE3A8B",
"a. c #F33D92",
"s. c #FC3A92",
"d. c #FC3DAF",
"f. c #FE45AF",
"g. c #FC4CAC",
"h. c #FD4BB3",
"j. c #FE46BB",
"k. c #FB4BBC",
"l. c #F551B4",
"z. c #FC51B5",
"x. c #FC52BA",
"c. c #FF45C2",
"v. c #FF4AC0",
"b. c #F853C3",
"n. c #EFEEBE",
"m. c #F1EFB6",
"M. c #F5EDBE",
"N. c #FCEEBA",
"B. c #FDF3B5",
"V. c #F7F1BF",
"C. c #EEE9C2",
"Z. c #EEEACF",
"A. c #FEE7C3",
"S. c #F5ECC4",
"D. c #FAEDC4",
"F. c #F5E6CF",
"G. c #FFE7C9",
"H. c #F3EDCB",
"J. c #FBECCB",
"K. c #ECF0CB",
"L. c #F5F3C6",
"P. c #FBF1C4",
"I. c #F5F8C3",
"U. c #F5F7CB",
"Y. c #FBF2CA",
"T. c #FAE7D6",
"R. c #F4ECD1",
"E. c #FDEED0",
"W. c #FFEEDA",
"Q. c #F4F5D6",
"!. c #FCF3D1",
"~. c #F9FFEB",
"^. c #FFF3FD",
"/. c #FFFDFD",
/* pixels */
"Z Z g v n Z u k k V h j v j c j E [ Q n Z x x z n S b Z Z n n p x c j c j k j x Z n C C n u x x x m ",
"C 8 z l j x x x k j c j l W j v j l C b i j z j c c j b C u p j j g ) [ c v z z x x z 0 p x j z j j ",
"0 x v v z W h z n f c x ..U Z j v j j v j j C R R j j v f x z z x W } b m h j z x j x c R R v z v x ",
"z v j I [  .T z f x j } R Z Z j x k V   O           X O     # #   j C Z Z A S Z j c E U [ W Z h f k ",
"x h U ..[ Q } m v x x n S m z c k V j             X O       # #   c c k k Z C Z x W U [ E Z C v v x ",
"x z } b m U m m j j j c C g c j       D F G / [ [ T Q / [ T D D U     Z Z   i.i.c R } ..Z b i j g x ",
"x j Q m U S n m n j j k j n     W Q D     T ) ~ U Q Q [ [ ~ ` Q D .   @ O a.X X p.U m J A 8 d k b L ",
"k v b m S v S u j k v k k j     Q Q G     T Q Q T Q / / [ Q ~ ` D     @ O a.O   a.n n m n i j c U | ",
"n v j Z S n p x z z x z j 9 D F Q Q ( D D   W T ` } } T T Q Q Q D / / p.p.. s.s.Y S I n i 9 l R } U ",
"S d v f 0 p f j z x z z j 4 / / T T T G G   [ ( T Q Q T T [ Q Q Q Q Q p.i.p.    P / m Z v p j E [ m ",
"C x x x z x x x x h h V z @ ) ` T T Y G G   [ [ T W Q E T [ ~ Q W / Q p.p.s.    c B n C S q j l Z n ",
"x x j j c g } U x j x x z + Q Q [ [ T     X           X X       / / Q ] ]   k j x x S v u q v c j x ",
"k x k x x } W Z x x x j x O ^ ^ .   + V.S.V.V.V.T.I.Y.I.L.M.P.P.      Q Q . C Z g z 0 u u x x j x v ",
"k x v f W b m j h z j c c O ^ ^   . + n.n.P.V.V.T.Y.L.I.L.D.J.P..     / Q O Z m z v x j x j x x j n ",
"k x f c x x j v x x x     F ) )     H.P.Y.H.P.D.D.H.R.H.S.H.J.P.K.> > / / S     m g j b j x x h b j ",
"R j c c j x j j z W I     F ) W     K.Y.Y.R.P.D.S.R.J.H.L.S.H.D.S.> > / / S     R R c j x x z x j U ",
"E ` k x j c v k l R ` . . Q X @ . . Q.    E.D.J.H.F.F.P.N.Q.. . K.O O     [     U } T j c x j x c P ",
"} Z x k k v k x U } O B B Q     C.C.B.S.D.P.S.S.!.P.P.H.D.J.N.N.N.Y.!.    T G G   | I Z u z x j P | ",
"U m u j c g v h R m O B B /     C.C.B.M.S.N.S.S.!.P.P.D.H.J.N.N.N.!.Y.    T G F   T m n u x V k Q | ",
"m n u c k j x x W } , ' ' /     Y.Y.:   O G.J.!.R.M.N.P.P.Z.  O + m.n.    ` ) (   b v d 3 x x x n m ",
"m 6 v z j c c x j C m   O Q + + I.I.O X X W.D.H.M.S.S.J.J.H.X   O Y.Y.    Q     n S n q z h j x c n ",
"p z j x U T j j c b C     T + + I.I.O     W.H.D.S.A.D.J.J.H.X X   Y.Y..   T     Z n n i x v x j z z ",
"z x j f | [ W v c j 0 O   (     G.G.s.i.i.R.D.D.I.!.E.S.n.E.i.a.p.H.H.    Q     n m p u z z x j x x ",
"x x x x U } Z n j c x O O T . . L.L.Y.J.D.P.Y.Y.S.J.J.P.P.n.L.L.H.J.J.    Q     i 0 i j z x j x j j ",
"T U c j c Z R Z q z v O @ T O . L.S.Y.J.J.P.P.Y.F.D.D.D.P.S.Y.Y.S.J.Y.    Q     x j k c j x c j j x ",
"n } Z j j Z n n p f X K K !     3.3.5.9.7.r.w.w.e.0.0.e.e.q.6.6.9.2.2.$ $ W . + x v x l v U W j x c ",
"c Z i k v j n s g v   K K !   + 3.3.9.7.7.r.w.w.e.0.0.e.e.q.6.6.9.2.3.. . Q X + x h j j P R ' E x j ",
"k j j c j x j x @ @ >.~ ~ Q _ _ X   0.6.6.4.8.5.7.7.7.4.4.7.7.7.q..   O O T W W   z b R E | Y { E c ",
"v V c g c c j x   . $.] ] 1.  X -.-.7 z.z.k././.V././.c.c.v.t t * u u     ( Q ~ *.. . W [ { U { R j ",
"j k W E  .` W R . . $.W ] 1.    -.-.7 z.z.k././.n././.c.c.c.t t o u u     ( ` Q #.o $ R [ E Y Q [ Z ",
"v P } } U | | U : : $.) / <.    &.&.* k.z.k.k.z./.z.h.j.j.h.8 4 3 . . >.>.~ ' ' :.    A } m m [ S n ",
"l E } T B H I   >.>.;.&.-.  = = 8 6 7 ^.^./././.+.X.X./././.2 2 8 ,.,.    #.~ ~ <.  . A U R m R n Z ",
"j ..v Z Z H I X :.&.;.&.&.  = = 6 3 0 ^.^./././.+.X.X./././.2 2 8 ,.,.    #.~ Q <.. . S z Z x Z C 0 ",
"v P _ b U Z v n . . &.    i 8 8 < < - u.u.u.y.y.t.u.u.u.u.y.8 7 8 =.=.. + ;.W ] :.    n j j S Z i j ",
"k k Z Z S Z Z v @ @ ;.+ O 8 & & q 0 1 O.+.o.O.@./.~.~.O.O.o.5 7 u % % $.$.+ <.<.=.>.>.  x v 0 i v j ",
"k k c j n Z u p O @ ;.X . 8 & & q q 1 +.+.o.@.@./.~.~.O.O.o.5 5 < % % $.$.O <.<.=.:.>.  z x x x j c ",
"c k v v u i i u v h   ` E   . . O O 8 h.z.^.g.g.v.k.k.g.h.b.5 5 O         0 4 4 %.X X n S z v z v j ",
"l j j j j i p j x x   T b   . . O O 6 z.z.^.l.l.b.v.k.h.h.b.7 7 O         3 4 4 %.  X S v z j z v U ",
"U E l n k k h c x z g m n N N N . . & k.x.h././.h.k.z.g.g.k.q q   8 8   X . 9 9 =.    C i x f x U Q ",
"{ R R j j x x j h x z l z M     u u 3 j.k.v.z.z./.k.k.x.x.d.* * 9   . y 3 u >.:.  n C u x x c R Y { ",
"[ [ T Z j v x c c x c g k M     u u 1 j.j.c.z.z./.k.k.x.x.f.* * 6     y y u &.>.  a a u z j c R | U ",
"U A C n d h k c U T j C j   5 5 w 5 u f.f.h.l.l.  v.v.j.h.b.; ; 9 6 6 . .   o X x j 8 p p z j ) } U ",
"B U S v u c c R | [ E U j   $ $   X - K.K.Y.    i     D.D.U.e e . . .     } T R x u v j 0 0 v j U D ",
"S v Z s j j R } U Q [ } S . $ $     - K.K.Y.    i     D.S.L.e 2 . $ $     } S / W 7 j W W p 9 j C n ",
"n Z Z r z g T ..m b T m m n u x v j O /././.O . s o o /./.^.    U [ Z m U U v ..m s c I } C 8 p p z ",
"n p z v j z R ~ m Q n n Z p u j k v j     ; 9 u c l b       z z  .R m } W S b m n 8 x j S n S 0 u p ",
"0 z z f v x c m m m n S u 8 j v x h x     X j v l L H     O j z j C m m S v S n p j n j x p 0 z z x ",
"z x x x j x j x C C u q q c x j x j v z j x c j E U ' ..[ U x z x j z b n S 0 q j v R R x z x x z V ",
"} x j x T T z z u i p j x j j x c E l j z j v R Q ~ D b U R n i x z k u u u c c Y E { U Z x x j j v ",
"n z x R m  .v x z j j x x x x x E | ) n x x g E ` Q U b W A m i x z j x x h V U [ [ U D m n c j x I "
};
