/* XPM */
static char *_1dcf647a7ac4371ada433cdb5a0a728HR6Lo3F7LIJqEQAF[] = {
/* columns rows colors chars-per-pixel */
"50 50 180 2 ",
"   c #010201",
".  c #0B0101",
"X  c #080903",
"o  c #01020B",
"O  c #0A0009",
"+  c #000A0C",
"@  c #0A0A0C",
"#  c #130001",
"$  c #120D00",
"%  c #0E1800",
"&  c #0D1A0C",
"*  c #151604",
"=  c #161E07",
"-  c #191A03",
";  c #16120D",
":  c #040012",
">  c #080415",
",  c #0C0D14",
"<  c #1B091F",
"1  c #091314",
"2  c #0D1814",
"3  c #0C1B1C",
"4  c #161513",
"5  c #1C1614",
"6  c #141817",
"7  c #191A15",
"8  c #13151A",
"9  c #1C151D",
"0  c #151A1D",
"q  c #181C1E",
"w  c #210D16",
"e  c #0A2011",
"r  c #0D201A",
"t  c #202016",
"y  c #0B1121",
"u  c #161B22",
"i  c #191D22",
"p  c #1D2125",
"a  c #1E222A",
"s  c #202126",
"d  c #22252B",
"f  c #26292E",
"g  c #292A2F",
"h  c #262A32",
"j  c #2B2D34",
"k  c #2D2F38",
"l  c #302F35",
"z  c #2E3136",
"x  c #2E3239",
"c  c #313136",
"v  c #32343A",
"b  c #38373A",
"n  c #36393D",
"m  c #3A3B3E",
"M  c #5A050A",
"N  c #650009",
"B  c #433E39",
"V  c #343740",
"C  c #363B41",
"Z  c #3B3D41",
"A  c #413D45",
"S  c #3D4144",
"D  c #434344",
"F  c #44454A",
"G  c #4A4A4A",
"H  c #56575B",
"J  c #5D5C5F",
"K  c #686F5F",
"L  c #5E5E62",
"P  c #625E63",
"I  c #5D6164",
"U  c #626266",
"Y  c #646365",
"T  c #666667",
"R  c #696567",
"E  c #696966",
"W  c #65656A",
"Q  c #66656A",
"!  c #69666B",
"~  c #67696C",
"^  c #6A6A6A",
"/  c #6B6B6C",
"(  c #6D6D6E",
")  c #766E63",
"_  c #716B6C",
"`  c #657163",
"'  c #6E706E",
"]  c #71726E",
"[  c #6D6D71",
"{  c #686A77",
"}  c #716F73",
"|  c #786D72",
" . c #657173",
".. c #717171",
"X. c #737274",
"o. c #757576",
"O. c #787576",
"+. c #757579",
"@. c #79777A",
"#. c #77787B",
"$. c #7A797C",
"%. c #830200",
"&. c #990000",
"*. c #9B020E",
"=. c #990513",
"-. c #A1000A",
";. c #F36E1F",
":. c #FF6C24",
">. c #FF6528",
",. c #FC6D2E",
"<. c #FD7327",
"1. c #F87429",
"2. c #FF712C",
"3. c #FA6A33",
"4. c #FF6B34",
"5. c #FF6A3E",
"6. c #FF7436",
"7. c #FF6A43",
"8. c #FB4E6C",
"9. c #FF4E72",
"0. c #078E07",
"q. c #088F0F",
"w. c #019305",
"e. c #038D14",
"r. c #0B8A19",
"t. c #019214",
"y. c #1ABA1A",
"u. c #0EBA25",
"i. c #12B423",
"p. c #06C523",
"a. c #0CC021",
"s. c #FFC629",
"d. c #FCC631",
"f. c #FDCA32",
"g. c #FB3889",
"h. c #FE3A8B",
"j. c #F33D92",
"k. c #FC3A92",
"l. c #FC3DAF",
"z. c #FE45AF",
"x. c #FC4CAC",
"c. c #FD4BB3",
"v. c #FE46BB",
"b. c #FB4CBC",
"n. c #F551B4",
"m. c #FC51B5",
"M. c #FC52BA",
"N. c #FF45C2",
"B. c #FF49C0",
"V. c #F853C3",
"C. c #FD51C4",
"Z. c #EFEEBE",
"A. c #F1EFB6",
"S. c #F5EDBE",
"D. c #FCEEBA",
"F. c #FDF3B5",
"G. c #F7F1BF",
"H. c #EEE9C2",
"J. c #EEEACF",
"K. c #FEE7C3",
"L. c #F5ECC4",
"P. c #FAEDC4",
"I. c #F5E6CF",
"U. c #FFE7C9",
"Y. c #F3EDCB",
"T. c #FBECCB",
"R. c #ECF0CB",
"E. c #F5F3C6",
"W. c #FBF1C4",
"Q. c #F5F8C3",
"!. c #F5F7CB",
"~. c #FBF2CA",
"^. c #F4ECD1",
"/. c #FDEED0",
"(. c #FDEBD8",
"). c #F4F5D6",
"_. c #FCF3D1",
"`. c #F9FFEB",
"'. c #FFF3FD",
"]. c #FFFDFD",
/* pixels */
"Z Z j x n Z u k h V j j c l v j R ..( n Z c x z n S v Z Z C n p x x j v j k z x Z n C n n u v x x m ",
"C 8 z z j x k x z x v j j ! j v j l n n i j x j c c j n C i p h j g / X.v n z z z x z 0 p j j j j j ",
"0 x v b z ~ h z n d x x $.U Z g v k j b j j C W W j j b g x c z z / ..m n f h z v j x c W W v x v x ",
"z v j L o.#.T z f x j +.W Z Z z k h V h v v P Y $.W c c x ~ o.z z j m A m v x z j j ^ U o.~ Z f h j ",
"x h Y $.' ( o.m d z z o.Y Z B j x k V   o         X X o     @ @   j n Z Z A S Z j x ! +.R Z C v n x ",
"x x o.b m T m m v x x n S n x c k V k             o         @ @   x v j j Z Z Z x ~ U $.Z b i j j c ",
"x j ( m Y S n m j j k x C j c j       D D G [ ] X./ ^ [ _ ^ D D !     Z Z   g.g.c W +.J A 8 f k v L ",
"k v n m Z v S u b k j k j b     / / D     ^ ( ( W / ( ....( } ( D     + + j.X   h.I n S n i j k P @.",
"b n j C S n i z z j x x v j     ^ / D     ^ ( ( T ( ( ....( _ ' D     + + j.o   h.b n n p q j W o.E ",
"Z d v h 0 p h z z z x j g 0 D D ' / ] D D   ^ ( ( o...^ ^ ^ ( ( D ' ( h.h.O k.k.R m Y S c p j ! ..m ",
"C x x x z z x x x x x j j 8 ..' E E E G G   ....^ ^ / ^ ^ ..( / E ' ' h.h.h.    L [ Z n D 0 j j Z C ",
"x x j j x j o.U j j h C j @ ..} E E E G G   ....^ ^ / ^ ^ ../ ( / / / h.h.h.    c D v v u u b l j j ",
"k x k x x +./ Z x x j x k o ( ( ] ] /                 X X       ] / ~  . .O k j x z S u i x x j v v ",
"k x v f ~ b n j x x x j v o ` ` .   O S.G.W.G.G.(.E.E.Q.E.L.W.P.O     ' /   C Z g z 0 j x h x x j V ",
"k c f c x x j v h x j c c o ` `     O G.L.G.G.G.(.P.E.E.E.P.W.T.X     ( (   Z C x v x b j x x h b j ",
"W j v l j x j j x x z     F / /     Y.E.~.Y.P.E.L.I.^.E.L.L.~.P.H.> > ' ] Z     n f j j v z x x j W ",
"R +.k x j l k j j / U     F / [     Y.E.~.I.E.W.P.^.^.Y.L.L.P.P.L.> > ( ' S     W ! v j x x j x c Y ",
"+.Z x v j v v x c W |     / + o . . ).    T.P.P.~.I.I.W.W.).. O Y.o o     ..    Y o.^ Z u j x j J +.",
"U n u h l j v h W +.o B B _     H.S.F.L.S.P.I.L._.~.E.P.P.P.D.D.D._.~.    ( D G   #.L n u x n j ( @.",
"m n u v j j x x W n o B B ]     H.L.F.S.P.P.H.L._.P.P.P.Y.T.D.D.F._._.    ^ G G   T n d 3 x x x b m ",
"m 6 v z j c x v [ +., | | '     P.~.: o + D._.~.J.D.D.P.W.^.  o > A.A.    } ( (   b v 0 z h j x x n ",
"p x z x U ^ g j j b Z     ^ O O Q.Q.+     (.Y.P.E.K.P.T.T.Y.    o ~.P.    (     b S n p x v x j j x ",
"z x h f #.X.W v j v C     ^ O O Q.Q.o     _.P.Y.Z.P.P.T.~.R.X     ~.T.    ^     Z n n u z z x z j x ",
"x x x c T o.m b v j 0 o o ]     U.U.k.h.h.^.T.U.!.T._.Z.Z.~.g.j.h.R.Y.    (     m C p j z x j x j x ",
"^ U v j v n W m j v v o o E   . E.E.~.T.P.W.W.!.L.T.^.P.~.S.~.~.Y.T.T.    _     i 0 i l j k l j j x ",
"b +.Z j j C m n 0 x x o o E .   Y.L.~.T.T.W.~.!.L./.T.P.W.S._.Y.Y.T.~.    ^     x x j v v W W l x v ",
"c Z i j n j C s p g   K K )     9.9.q.t.e.u.y.u.p.y.y.p.p.u.w.w.t.8.8.# # ~ X   x x j j P W o.^ j j ",
"j j j v h v j c j v   K K )     9.9.q.e.t.a.u.y.p.y.y.p.p.u.w.w.t.8.8.. # / O O x j j ! ! @.R | ! v ",
"v v c g v v j j + + 4._ _ [ { {     i.w.w.0.r.r.e.0.e.0.0.t.e.e.u.    o o E { !   z v / X.o.Y O.R j ",
"j l { ! @.[ ! !   . ;.' [ 7.O   1.1.7 m.m.b.].].Z.].].N.N.B.t q $ u u     ] ( ^ 1.. . Y +.R E ^ X.Z ",
"v P +.o.U @.+.Y : : :. .[ 6.    4.,.* m.m.b.b.m.].c.c.v.v.c.4 4 3   . 4.4._ | | 4.    D +.m m X.Z n ",
"l ! o.^ B H I   4.4.2.,.,.  = = 6 6 0 '.'.].].].=.%.%.].].].2 2 8 5.5.    1._ _ 6..   Z W W m W n Z ",
"j @.v Z m H I   4.4.,.,.2.  = = 6 3 6 '.'.].].].=.%.%.].].].2 2 y 5.5.    ;._ ^ 6.    D x S z Z b u ",
"v W [ v Y S v n . . ,.  o 9 3 6 < < = f.f.f.d.d.s.f.f.f.f.d.6 5 8 <.<.. . 6.~  .3.    v z g F m i j ",
"k k Z Z S Z C n + + ,.O X < & & q q 1 *.=.&.*.-.].`.`.*.-.&.5 5 u % % :.:.o 6.6.<.4.5.  v v 8 i v j ",
"k j l j v Z i s + + <.X O 8 & & q 0 1 =.=.&.-.-.].`.`.*.=.&.5 5 9 % % :.:.o 6.6.:.4.4.  z z x x j v ",
"v j n v u u u u v h   } W   .   o o 8 m.b.].x.n.B.b.b.c.c.V.5 5 o         0 4 4 :.    Z S j v j v j ",
"l j j j j u u j x z   ^ n   . . o o 0 c.m.'.x.x.V.b.b.x.c.V.4 4 o         3 4 4 >.X X Z v z j v v P ",
"Y ! l n k j h v x z g m m N N N . . & M.m.c.].].c.M.b.x.x.M.u q   8 5 o     9 5 <.o o v p x j z P ( ",
"@.W W j j k v l h x z l l M     u u 3 v.b.B.m.m.].v.b.M.m.l.* * 9     y y i 4.4.  v S 0 z z z W R O.",
"O.] ^ C j v k k c x k g v M     u u 3 v.v.C.m.m.].v.b.M.M.z.* * 5     y y i 4.4.  a a u j j l W @.E ",
"Y A C n a j l l U ^ j Z j   5 5 w w 0 z.z.c.n.n.X B.B.v.v.M.4 ; 9 6 6         X z z 2 p i n j { o.Y ",
"m Y Z b u v v W O.X./ P l   # #     - R.R.~.    u     P.P.E.e e   # .     @.T W z i n z 8 0 b j I D ",
"S v Z s j j R o.Y ^ ..+.A   # #     - R.R.~.    i     P.L.E.e e   # #     O.D ' ~ 6 j ~ / i q j S n ",
"n m Z r j g T #.m b T m n n i x v j o ].].]..   d X X ].].'.    Y +.Z b T Y v #.n s c I +.n 8 p p z ",
"n p z v z c ~ ' m / m n m s u j j n j     @ i i x l b     o z j @.W n O.~ m b m n 8 x j S n S u u p ",
"q z z f v x x m n m n S q 8 x x x h x     X j v l J H       j x j n m m S n S n s j b h v p 0 z z x ",
"z x z x j j j x n S u q q x x j x j v x j x v k R P O.@.X.Y x x x x c n n S 0 u j v ~ W x j x x x x ",
"+.z j x E T z z u i p j x j j x c R l j x j v R ( ..A b W W n i x x j i i u v v Y R @.L D x x x h n ",
"n z v W m #.v z z z j x x x x x W @.[ C x v j R ..R P b / S n q x j j x x h b P o.} W D n v c x x L "
};
