/* XPM */
static char *_b47a21f765e429ccffc83d1991f13e7gpKUtzSGJDWOJDe9[] = {
/* columns rows colors chars-per-pixel */
"50 50 183 2 ",
"   c #010201",
".  c #0C0204",
"X  c #000D03",
"o  c #1A060A",
"O  c #10100E",
"+  c #1F0614",
"@  c #150F15",
"#  c #1E0815",
"$  c #13161B",
"%  c #15191E",
"&  c #1A1B1E",
"*  c #2A0A0E",
"=  c #320A0E",
"-  c #250713",
";  c #210914",
":  c #2C0811",
">  c #24171E",
",  c #2A131C",
"<  c #311D1D",
"1  c #171B21",
"2  c #1A1D22",
"3  c #251C24",
"4  c #291B23",
"5  c #351A25",
"6  c #3C1F25",
"7  c #1C2125",
"8  c #1E2228",
"9  c #183D2E",
"0  c #202125",
"q  c #23262B",
"w  c #2B262C",
"e  c #262A2F",
"r  c #2A2A2E",
"t  c #2E332F",
"y  c #262B32",
"u  c #2C2D34",
"i  c #2C2F38",
"p  c #302E34",
"a  c #2E3136",
"s  c #2E3239",
"d  c #313136",
"f  c #3A3537",
"g  c #32343A",
"h  c #39373A",
"j  c #36393D",
"k  c #3A3B3E",
"l  c #501B26",
"z  c #432629",
"x  c #4A292C",
"c  c #54272C",
"v  c #57312D",
"b  c #4A2532",
"n  c #4F2E31",
"m  c #4A3836",
"M  c #563333",
"N  c #583233",
"B  c #642A38",
"V  c #633D33",
"C  c #69333C",
"Z  c #74363D",
"A  c #753A3C",
"S  c #5C433F",
"D  c #343740",
"F  c #363B41",
"G  c #3B3D41",
"H  c #5D3644",
"J  c #6D3542",
"K  c #643A4A",
"L  c #6B3C4C",
"P  c #713946",
"I  c #723B48",
"U  c #783F4D",
"Y  c #6F3F50",
"T  c #3D4044",
"R  c #366A57",
"E  c #3A765F",
"W  c #414144",
"Q  c #414449",
"!  c #564647",
"~  c #455A4C",
"^  c #485F4F",
"/  c #5C5559",
"(  c #5D5C5F",
")  c #644646",
"_  c #78424F",
"`  c #64544D",
"'  c #774355",
"]  c #7B4455",
"[  c #625C5E",
"{  c #6F635F",
"}  c #5E5D61",
"|  c #625E62",
" . c #6A5F61",
".. c #5F6164",
"X. c #487C66",
"o. c #5A7363",
"O. c #646265",
"+. c #696567",
"@. c #65656A",
"#. c #69666B",
"$. c #67686C",
"%. c #6A696D",
"&. c #716B6E",
"*. c #6D6D71",
"=. c #716E72",
"-. c #747274",
";. c #787476",
":. c #7E7971",
">. c #757579",
",. c #79777A",
"<. c #77787B",
"1. c #79797C",
"2. c #C41230",
"3. c #C11834",
"4. c #932A42",
"5. c #824656",
"6. c #874758",
"7. c #854A5B",
"8. c #8A4C5F",
"9. c #9A645E",
"0. c #93715D",
"q. c #8D4D62",
"w. c #914E63",
"e. c #8A5162",
"r. c #905064",
"t. c #977161",
"y. c #987062",
"u. c #AF7D6B",
"i. c #C44B47",
"p. c #DA7670",
"a. c #3F8368",
"s. c #428269",
"d. c #468E73",
"f. c #538B73",
"g. c #479679",
"h. c #4B9578",
"j. c #599177",
"k. c #7E857E",
"l. c #87897E",
"z. c #919C7F",
"x. c #B0816A",
"c. c #B98A75",
"v. c #C0907B",
"b. c #877D80",
"n. c #58A386",
"m. c #55B08D",
"M. c #56B592",
"N. c #5AB896",
"B. c #56BE98",
"V. c #58BF9A",
"C. c #56C199",
"Z. c #848983",
"A. c #9B9593",
"S. c #A2938F",
"D. c #A19999",
"F. c #BCA088",
"G. c #B6B3AC",
"H. c #C29080",
"J. c #C29C82",
"K. c #CB9B85",
"L. c #CBA58A",
"P. c #DAB596",
"I. c #DFB999",
"U. c #E0BA99",
"Y. c #A5C8A1",
"T. c #C8C1BC",
"R. c #EEC5A3",
"E. c #F0C5A6",
"W. c #F5CDA6",
"Q. c #F6CEA9",
"!. c #F8CFA9",
"~. c #F5D0A6",
"^. c #F6D0A9",
"/. c #D8BEC1",
"(. c #D2CCC7",
"). c #D4CEC8",
"_. c #DBD2CF",
"`. c #DED7D0",
"'. c #E4DCD7",
"]. c #E2E4DD",
"[. c #F9EAD4",
"{. c #EEEDE5",
"}. c #F2F3ED",
/* pixels */
"G G u g j G 1 i y D u i d u s y #.-.%.j G i a a j W g T G j j 7 i g u s y s a s G j T F j 2 s s s G ",
"F $ a a u a i s s s g u a @.y j p p k j 2 i i u d g d g j 2 7 u u u *.=.s j u a u s y % 7 u u u r i ",
"% a g g a $.y a j q g d 1.O.G r g i u j i r F #.@.u u d r a s a a $.>.h h u u s a u a g #.@.g i g s ",
"a g u } -.1.( a w u u *.| k k p p y g q 6.p / / =.[ p p r O.-.r p u h G k p a r u p @.[ #.#.G 9 y i ",
"s y ..k.=.%.=.k s s a j T k a d i D y U w.6.6.6.5.7.5.5._ p O.h i s p p u u y i d %.O.-. .G T s j s ",
"a a -.j G +.f G u u a s j r d u w l U q., 4 4 w., , , , w.I I I p u p s g i D i a @.1.1.h j 1 y e a ",
"s u *.k O.G h G j u u i u j d O.c B 5.K 4 4 b K 3 3 5 b w.K K w.l s } #.y s u g @.-.k } H $ 8 s j } ",
"i g h k G j G % i y D i s u $.&.P q.Y 4 3 2 U 4 3 3 b q.' 3 3 ] w.5.,.,.| g u d $.h k W s 7 a i | ,.",
"j j u F T j 2 a a a s a r %.%.8.3 b ' 3 3 w.3 4 3 L q.' 3 3 3 3 q. .| ,.@.G i u +.k O.j & & d @.>.@.",
"G q g y % 7 r a u s s u a @.&.7.3 b ' 3 3 w.4 3 3 L H 3 3 3 3 3 q.r.#.h #.g u g [ *.k T f 7 u #.-.h ",
"F s a s a u a a a y y F u i 8.4 3 3 3 3 3 3 3 3 3 4 4 3 3 4 w.w.2 ] w.J k G g g d W g F G % u p T j ",
"s s u i a u -.O.s s i s u u 8.3 3 S W.^.W.W.!.A J K.c.B 3 3 3 3 3 3 L J 2 1 y y a a T g & 1 g i u a ",
"u s i g a -.@.G s s s u s s q.> F.!.!.!.!.!.!.W.Z Z Z Z J 3 3 3 3 3 L J q j i g u a % 2 2 g i u s g ",
"s i g y @.j h u y a u g i u q.P.E.!.!.!.!.!.!.A Z Z Z Z Z C 3 3 3 3 L J d u g u a g a u i y a d y j ",
"i s q d s g r g s a a @.O.r q.E.^.!.!.!.!.!.!.Z H.A 9.L.K.Z 3 3 L Y 7.6.C p r d a r u g u s s y j u ",
"@.u g d u s u u a $.O.-.=.B w.E.^.!.!.!.!.!.!.u.E.x.v.!.E.P 3 3 H H H K 6.-.@.$.@.@.g u a a s s u @.",
"#.-.s s i p s i d #.-.#.[ _ _ R.^.I.v.L.^.!.~.!.L.v.P.!.W.C 3 3 3 4 0 5 7.O.%.,.-.;.$.t a s a s d O.",
",.G s s i g p i O.>.+.*.-.k / U.!.t.: * !.!.!.!.: : V !.!.!.3 3 4 0 > 6 ] [ &.%.+.1.} T % a a u ( ,.",
"..j 2 y p u g y @.j h -.%.h k U.^.t.* * !.!.!.^.= : V !.!.^.3 3 W.> 4 4 4 e.+.h k @.j j % s D i %.1.",
"k k $ g i r a s %.,.k $.h k d I.^.y.: : !.!.!.^.: : V !.!.~.3 ~.^.> 4 0 4 &.[ %.k h g q $ s s s h k ",
"k $ g y t a u s u k T s j T k I.!.p.2.2.!.!.!.W.3.2.i.^.!.^.^.!.!.4 L P f >.%.g j W j % t y u s s h ",
"7 s t g O.#.p r a d j j F j % I.!.Q.!.!.W.!.!.!.Q.W.Q.!.!.!.W.3 0 4 K J f T k T T j k 2 a g s y a a ",
"a s u e <.-.O.g g r % q % % 3 i J.!.!.!.!.!.!.!.!.!.!.!.^.^.4 4.u r a d T k s F h G 7 % u a a a a a ",
"a s s s O.>.k h a s s e 2 7 e d ( ! [.W.W.W.!.!.!.!.~.P.3 3 3 /.u g a 7 $ 7 2 2 1 % 2 a a s u s u a ",
"$.O.d u g k | k % s d u a a u @.=.m G.0.Y.^.^.^.Y.Y.z.` @ R u G.y a a a a i u i i i i s r g d u a s ",
"h ,.G i u G j j 8 y a s u h O.,.-.%.` * g.L.^.L.j.d.R     d.g +.a a s d a a a s i g s s g O.@.u s s ",
"a G 1 y j u j 0 y s a y d @.-.k j p :     N }.N     9 C.M.    w { $...{ $.O.d u a u y p | @.-.%.u u ",
"s u y j e g u a s s a s u $.j $.k t g.  M N Z.M '.O 9 B.M.    N.+.&.=.%.-.1.@.a a a j #.| ;.+.-.$.g ",
"g g s u g g r i s y s a y a H g h o   M.M M M M M f.R     C.V.  -.<.-.-.T ( d 7 s a u %.&.-.O.:.@.u ",
"u i %.@.>.=.| #.s a g a s s y k       n M v Z.M M M <     V.C.    f #.@.h W T % y s s @.&.$.+.%.-.G ",
"g | -.,.O.1.=.O.g y y s j y a u j.C.n.N M N N N M M ^ C.M.    V.B.d T k h j T % g i u a =.k k =.T j ",
"s #.>.%.m [ +.k T s s s i s u X g.C.j.N N M l.N M N ^ C.M.    C.C.  T h j T % s u d g u O.@.k @.j G ",
"y ,.g H G O.@.j j 8 a u a u f.d.X X   ).(.:.].1.T.).l.    g.g.  X s.h.~ 2 1 g i s p u d u G g G j 1 ",
"g @.$.s O.T d k 7 y g g d #.N.C.      b.b.! b.! ;.b.! .   C.C.    g.V.X.u s r g | %.i g r u Q j 2 a ",
"u s T F W F j h % g a r @.( X.a.X   . # # # # # + + # @   a.a.    E s.~ d i p @.| ,.>.=.u g $ 1 g y ",
"s i s y g G & 2 % s s $.-.,.    s.o.x # # # # # n M 6 # n.    B.C.    . r s *.@.1.@.,.G r d i g u a ",
"s i g g 1 % & 2 s u @.-.$.%..   z M b # M # ; # n M 6 # n     B.B.    o u i *.=.k h %.k k a g u g u ",
"a y u u u 7 2 u s i $.#.j @.m.B.M N x # N M # # n M 6 # N N V.    g.2 p u u O.,.k $.j j d d y g f O.",
"@.%.a g s a e d a i u j G W d P.v v x # N M # # n M 6 # N M # Q.^.W.2 u i g u k j G j T 2 g y g O.%.",
";.@.$.a y s i i u a a p i h G g - , x # M v # # # z 6 # N N # M # k % s i i g u 2 j T % u i i @.+.;.",
">.*.#.G y g i s d a i u i 2 % 2 # ; # # # # # # = : # # ; ; + + # 2 u i a g s a e 7 7 % u u a @.<.O.",
"o.H j j q e p p O.%.r G u i g $ 2 : # # # # # -.[ u u @ + # # + 2 g r g $...r d s a $ 7 7 a i %.>.O.",
"j ..G j % g d @.>.-.$.O.u u 7 2 p ) D.D.D.D.,.$.F 2 u y D.D.D.A.u d #.| O.<.@.@.a & g a $ $ g u ..Q ",
"T g G 7 p u O.-.O.%.-.>.G d 2 1 g N {.{.{.S.[ h h 2 j j ].{.{.S.p #.%.l.-.<.T %.$.% t $.@.7 & a T j ",
"j G G % a r O.1.k f $.k j j 1 a p ! '.'.).d G G 7 e q p _.`.).u O.-.G h O.+.d k.h 0 d ..=.j $ 8 7 s ",
"j 7 t g a d | *.k $.h h T 7 1 u x J _ v M G 1 1 a a h M 7.M M u <.@.j ,.$.G h G k $ d i k h T % 1 7 ",
"% a a y g a d k j T j T & $ i g g e i r 0 $ u g u #.[ O.@.d t a i G k j T j T j 7 u j r a 8 % s i s ",
"a s a s u i r u h j & & & p i u p u d p r u p i  .[ &.;.&.( u a u u p h h k $ % u g } O.p a s a y j ",
">.s y s #.@.d a 2 1 8 u s u u s g #.p a a i g @.+.-.H j ..$.j 2 a a i 1 2 1 a p +.#.,.( W a a a u j ",
"j a g o.k 1.h a a u y s s s s s @.>.*.j s s r #.-.$...g $.T G 1 s a i s g y j O.-.=.@.W j h s s s } "
};
